<svg xmlns="http://www.w3.org/2000/svg" id="svg1" width="192" height="395" viewBox="0 0 192 395"><g id="g1" transform="translate(-104 -2.5)"><path id="path1" d="M202.682 3.002c-11.749-.212-20.42 8.197-22.353 10.19-8.18 7.836-12.448 17.68-15.719 28.034-4.59 21.208-4.647 23.21-5.609 29.461-6.844 6.407-14.347 11.855-19.826 20.251a26 26 0 0 0-3.08 10.166c-.61 9.587-.704 8.358 2.166 9.963 3.629-2.04 3.124-6.228 4.626-9.805 4.712-5.201 9.41-9.868 13.903-6.909 1.207 1.054 1.403 2.408.08 4.21l-14.22 16.279c-6.645 9.45-11.667 18.245-17.376 27.318-6.247 12.291-10.68 24.84-14.376 37.721-1.764 10.404-3.837 20.807-4.818 31.21l-1.58 58.607c2.987 14.612 12.733 21.23 18.8 32.084 1.066 1.18.353 2.92-.949 4.844-2.102 4.219-4.395 6.9-6.635 10.005-4.421 8.728-5.368 16.87-7.892 25.325l-.48 25.42c-.469 4.153.266 3.452 1.546 5.305 1.045-.702 3.448-.68 3.641-1.946l-.314-28.985.55-2.976c.874-7.568 2.027-11.5 3.502-17.377 5.44-7.677 8.545-11.819 10.584-12.944 2.758.795 5.346 2.276 7.583 5.162 8.173 10.047 15.65 18.343 21.722 23.11 8.386 7.521 16.786 14.698 25.276 19.297 11.087 5.243 23.64 11.962 30.804 13.262 9.37 3.458 17.192 4.98 22.67 3.573l3.16-2.461c2.11-1.87 2.344-5.294 5.213-5.162q2.014.248 1.738 2.46l-.237 28.272c.104.858.998 1.38 1.738.794l4.581-4.606c.32-2.698.535-5.433.078-8.418-.04-2.032.753-3.36 1.738-4.526 1.847-7.61 0-13.553 0-20.33 14.29-11.847 14.678-13.154 15.165-14.533 6.768-9.98 15.28-19.74 18.405-30.177 4.63-10.386 7.803-21.098 7.977-32.48.435-6.704 1.13-13.358 1.028-20.17-.266-13.672-10.286-22.649-15.561-33.91-4.8-7.691-12.455-14.427-19.983-21.204-.857-1.338-.963-2.708 0-4.129l10.109-16.598c.52-9.662-1.308-10.913-2.764-13.5-3.033-8.638-6.94-11.558-10.584-16.201l-14.93-19.693c-2.405-3.167-3.614-6.677-4.897-10.166-.243-2.6.918-4.023 2.134-5.4 10.782-7.19 15.97-16.881 23.932-25.332 1.751-1.728 1.347-4.538.553-7.545L261.686 77.2c1.14-6.326 2.649-9.489 4.106-13.105.806-3.376 2.688-4.83 4.977-5.557 3.736.487 4.36 2.396 4.501 4.526l-.553 21.282c.234 1.617.908 3.013 2.134 4.13.909.4-.04 5.602-.159 8.657-2.219 5.53-6.102 10.449-10.11 15.325-1.423 4.497-2.925 8.92-3.711 14.058-.183 3.643-.742 7.314.077 10.879-1.365 1.31-2.117 2.974-2.923 4.606.369 2.867 1.459 2.73 2.37 3.335 4.998-.485 3.915-2.6 5.61-3.97l1.933-7.75.83-17.664c2.422-6.15 7.074-11.11 10.742-16.596 2.512-3.86 1.376-6.497 1.66-9.61.62-7.386-.553-13.545-1.974-19.535.838-8.225 2.47-11.126 4.028-14.532 1.778-3.745 2.092-6.326 1.895-8.498a60 60 0 0 0-.632-6.511c-3.195-9.022-16.302-18.957-25.513-28.034-1.574-1.504-3.2-1.714-5.214-1.032-3.221 1.604-3.277 4.373-4.185 6.83-.452 5.296-1.566 9.08-2.923 12.308-.695 3.087-2.739 4.894-4.898 6.591l-13.821 7.227c-1.478 1.448-.183 2.555.046 2.515.851.82 1.18.066 1.738 0 6.218-2.527 12.53-5.45 18.436-6.645 2.779.572 5.563 1.114 8.057 3.176 1.721 1.748 3.344 3.551 4.028 5.878 1 10.493-3.912 18.091-4.581 28.985l1.658 12.389c.144 3.389-2.456 5.245-4.265 7.544l-9.399 9.848-10.9 5.4-13.983-2.461-11.767-18.186-1.344-.874-1.106 2.7 5.45 14.215 9.953 12.07 10.584 7.149 8.689 15.485 16.843 24.986c2.356 2.587 2.879 5.42 2.766 8.338-.175 2.215.435 5.334-.81 10.115-2.844 4.897-5.253 8.142-7.724 14.63.81 3.229 2.55 5.918 5.749 8.32 5.16 7.561 9.694 16.174 15.798 22.156 1.898 3.467 3.527 7.069 5.845 10.324l5.134 11.437c1.5 8.47 2.468 16.942 2.448 25.413.276 16.377-1.994 23.216-4.659 28.587-3.475 9.038-7.202 18.055-16.193 26.604-10.508 7.935-19.788 16.749-32.614 22.742-2.087 2.447-4.342 5.044-5.694 8.547-1.718 2.416-4.954 1.478-8.216.477-10.945-5.212-21.431-9.36-33.964-18.266l-36.414-31.528-25.59-24.3c-6.01-5.514-9.892-14.407-13.247-23.48-.722-13.22-1.019-26.222.366-39.971-.721-14.982 2.152-26.433 4.744-37.562 4.136-14.2 7.788-28.766 13.507-41.771l19.747-31.766c6.03-6.564 12.38-10.762 18.088-19.696 1.883-6.158.157-14.907.078-22.474.33-13.248 3.37-23.772 5.293-35.418 2.835-5.746 4.913-11.599 9.083-17.153 7.511-9.822 16.586-12.966 25.75-15.725 1.493-1.155 3.341-2.292.555-3.652a24.4 24.4 0 0 0-5.214-.661zm61.692 22.848c3.013.074 6.792.867 8.74 2.422 2.332 2.324 2.918 4.56 3.103 6.552 1.356 4.287-.956 18.036-4.469 17.66-5.138-.55-11.936-18.266-12.724-18.783-1.132-.743-.136-7.074.931-6.74.195-.79 2.075-1.168 4.419-1.11zM157.72 156.26c-.178.018-.361.093-.547.185-3.662 1.253-2.917 19.824-4.376 29.736-.114 5.217-.55 9.3-.878 13.765-2.757 11.313-5.442 21.43-8.513 38.123-1.13 10.78-3.106 19.434-3.336 32.476.947 3.755 1.794 7.567 3.862 10.679l24.489 25.327 17.555 17.12c4.148 5.76 8.99 10.96 13.957 16.061 6.171 3.843 9.838 4.808 12.55 4.676 5.647 1.718 5.83 1.535 7.462 1.855 1.127.566 7.856 4.482 8.251 4.941 1.416 1.645 3.596.295 3.16-.175.824-.891-.483-1.948-1.756-3.001-8.802-5.61-15.486-6.767-22.557-8.736-12.81-11.843-24.988-25.589-37.48-38.389-13.75-13.25-18.735-19.674-20.804-23.827-4.06-6.38-2.115-9.992-2.632-14.738.322-14.107 5.12-31.486 8.864-48.094 1.221.019 4.668-30.384 5.091-32.035.168-.654.829-13.75.351-14.296-.238-.273-1.404-9.179-1.404-9.179-.299-2.067-.776-2.528-1.31-2.474zm17.576 27.891c-2.973 3.762.258 10.324 5.338 17.722-1.645.69 11.672 4.558 14.834 3.744 2.189-.563 8.817-1.684 7.696-2.06 2.687-2.985-12.658-8.689-13.096-8.111-.265.348-12.118-11.672-14.772-11.295z" style="fill:#a80;fill-opacity:1;stroke:#a88700;stroke-width:.995733;stroke-dasharray:none;stroke-opacity:1"/></g></svg>